# xmcd CD database file
#
# Track frame offsets:
#	150
#	38208
#	72252
#	102910
#	133028
#	155392
#	188601
#	230862
#
# Disc length: 3509 seconds
#
# Revision: 0
# Processed by: cddbd v1.5.2PL0 Copyright (c) Steve Scherf et al.
# Submitted via: CDex 1.70beta2
#
DISCID=690db308
DTITLE=Michel Petrucciani (Anthony Jackson, Steve Gadd) - Live in Stuttgart 1997
DYEAR=1997
DGENRE=Jazz
TTITLE0=Little Peace in C
TTITLE1=Brazillian Like
TTITLE2=Chloe Meets Gershwin
TTITLE3=September 2nd
TTITLE4=So What
TTITLE5=Guadeloupe
TTITLE6=Take the A Train
TTITLE7=Cantabile
EXTD=YEAR: 1997
EXTT0=
EXTT1=
EXTT2=
EXTT3=
EXTT4=
EXTT5=
EXTT6=
EXTT7=
PLAYORDER=
